<?xml version="1.0" standalone="no"?>
<!DOCTYPE svg PUBLIC "-//W3C//DTD SVG 20010904//EN"
 "http://www.w3.org/TR/2001/REC-SVG-20010904/DTD/svg10.dtd">
<svg version="1.0" xmlns="http://www.w3.org/2000/svg"
 width="700.000000pt" height="700.000000pt" viewBox="0 0 700.000000 700.000000"
 preserveAspectRatio="xMidYMid meet">
<metadata>
Created by potrace 1.11, written by Peter Selinger 2001-2013
</metadata>
<g transform="translate(0.000000,700.000000) scale(0.100000,-0.100000)"
fill="#000000" stroke="none">
<path d="M130 6357 c-43 -20 -71 -44 -98 -84 l-27 -38 0 -470 c0 -436 1 -474
18 -510 40 -86 106 -114 269 -115 l117 0 3 -337 c3 -371 3 -368 67 -429 32
-30 96 -53 146 -54 34 0 99 -29 131 -58 59 -51 79 -162 43 -234 -79 -156 -297
-154 -369 4 -11 24 -20 62 -20 86 0 72 -52 151 -123 185 -64 31 -182 7 -231
-47 -42 -47 -59 -105 -52 -183 7 -96 20 -141 64 -233 50 -104 167 -222 274
-274 42 -20 85 -38 96 -41 11 -2 35 -8 55 -13 20 -6 82 -9 139 -8 81 2 118 8
176 29 191 67 331 209 393 399 33 101 34 261 2 363 -28 88 -83 180 -145 246
-53 54 -150 121 -204 141 l-34 12 0 223 0 223 61 0 60 0 965 -964 964 -965 0
-265 0 -266 -1352 0 c-1296 0 -1355 -1 -1394 -19 -54 -25 -100 -75 -114 -125
-8 -29 -10 -234 -8 -701 3 -638 4 -661 23 -690 30 -45 74 -82 115 -94 24 -7
158 -11 377 -11 l339 0 12 -34 c35 -97 146 -223 253 -288 103 -62 177 -83 304
-83 114 0 142 4 215 30 55 19 163 79 180 100 17 21 24 20 77 -19 58 -41 97
-61 158 -82 75 -25 85 -27 187 -30 215 -7 411 96 529 279 21 33 44 75 51 93
l12 34 1067 0 1066 0 31 -62 c77 -154 210 -270 367 -319 57 -18 62 -19 147
-26 240 -18 473 115 586 334 l37 73 346 0 c238 0 357 4 380 12 54 18 87 48
114 102 l25 50 0 1069 0 1069 -219 431 c-506 1000 -626 1234 -648 1269 -13 21
-42 50 -65 65 -39 26 -50 28 -177 33 l-135 5 -2 145 c-2 235 -47 354 -184 490
-289 289 -770 219 -968 -140 -61 -112 -74 -173 -76 -360 l-1 -135 -135 -5
c-138 -5 -155 -10 -208 -55 -13 -11 -33 -38 -45 -60 -20 -39 -21 -53 -21 -472
l-1 -432 -25 16 c-14 9 -56 39 -95 68 -110 82 -1850 1381 -2055 1535 -145 108
-691 515 -745 555 -38 28 -83 56 -98 63 -39 17 -931 16 -967 -1z m643 -397
l47 0 0 -205 0 -205 -205 0 -205 0 0 204 0 205 33 3 c17 2 88 2 157 1 69 -1
146 -3 173 -3z m835 -484 c202 -151 372 -278 377 -283 10 -8 103 -77 375 -279
85 -64 168 -125 184 -137 16 -12 220 -165 455 -340 234 -175 433 -323 441
-330 8 -7 85 -64 170 -127 85 -63 162 -121 170 -127 8 -7 87 -66 175 -131
l160 -119 0 -49 0 -49 -477 -3 -477 -2 -965 966 -966 966 0 159 c0 87 2 159 5
159 4 0 171 -123 373 -274z m3605 61 c47 -20 92 -62 113 -104 14 -30 18 -64
19 -165 l1 -128 -206 0 -206 0 1 129 c2 120 4 132 28 174 54 92 159 132 250
94z m-278 -1529 c0 -432 3 -741 9 -767 13 -55 78 -125 132 -140 26 -7 282 -11
777 -11 l737 0 0 -205 0 -205 -330 -1 c-181 -1 -333 -2 -337 -3 -91 -21 -152
-88 -166 -182 -6 -40 23 -127 53 -159 19 -20 78 -56 103 -61 4 -1 158 -2 342
-3 l335 -1 0 -410 0 -410 -228 0 -229 0 -37 75 c-73 148 -225 270 -396 317
-53 14 -209 19 -260 7 -25 -6 -52 -12 -60 -14 -31 -6 -106 -39 -145 -63 -102
-64 -192 -164 -242 -270 l-26 -52 -220 2 -221 3 -1 1630 c-1 897 1 1633 3
1638 2 4 94 7 205 7 l202 0 0 -722z m1008 509 c60 -116 200 -393 313 -615
l205 -402 -558 2 -558 3 0 605 c-1 333 1 608 3 613 2 4 112 7 245 7 l242 0
108 -213z m-1828 -1629 l0 -203 -415 0 -415 0 -2 203 -1 202 416 0 417 0 0
-202z m0 -1028 l0 -410 -640 0 -641 0 -12 34 c-35 96 -145 222 -251 287 -159
97 -382 113 -551 41 -50 -21 -155 -86 -165 -102 -3 -5 -27 7 -53 27 -108 82
-223 118 -377 118 -111 -1 -181 -18 -278 -69 -116 -62 -227 -181 -275 -296
l-17 -40 -222 0 -223 0 0 410 0 410 1853 0 1852 0 0 -410z m-2600 -429 c107
-48 152 -165 105 -270 -74 -161 -297 -159 -371 4 -74 163 103 340 266 266z
m821 0 c165 -75 162 -307 -4 -376 -116 -49 -258 33 -277 160 -24 155 139 280
281 216z m3278 7 c48 -15 122 -85 130 -126 14 -64 15 -77 5 -118 -34 -135
-199 -197 -312 -117 -138 96 -111 299 47 360 41 15 80 16 130 1z"/>
</g>
</svg>
